<svg width="500" height="500" viewBox="0 0 500 500" fill="none" xmlns="http://www.w3.org/2000/svg">
<g clip-path="url(#clip0_503_3665)">
<rect width="500" height="500" fill="#E0EBFD"/>
<path d="M263.336 308C317.184 308 360.836 264.348 360.836 210.5C360.836 156.652 317.184 113 263.336 113C209.488 113 165.836 156.652 165.836 210.5C165.836 264.348 209.488 308 263.336 308Z" stroke="white" stroke-width="5" stroke-dasharray="12 18"/>
<path opacity="0.4" d="M395.433 51.2254C393.406 51.2238 391.417 50.672 389.679 49.6289C341.671 23.4943 300.183 12.4067 250.401 12.4067C200.859 12.4067 153.881 24.8114 111.123 49.6289C105.122 53.0613 97.6188 50.6826 94.1189 44.3525C90.8667 38.0144 93.1201 29.8244 99.1211 26.3999C145.09 -0.179377 197.288 -14.1186 250.401 -13.9992C303.659 -13.9992 350.173 -1.58652 401.186 26.1285C404.182 27.826 406.402 30.6172 407.381 33.9157C408.36 37.2142 408.021 40.7634 406.436 43.8177C404.159 48.5513 399.907 51.2254 395.433 51.2254ZM37.5846 189.793C34.976 189.766 32.4404 188.929 30.3291 187.398C24.5757 183.167 23.3292 174.985 27.3325 168.911C52.1037 131.952 83.5951 102.912 121.096 82.5804C199.612 39.8105 300.135 39.547 378.908 82.317C416.408 102.672 447.916 131.449 472.671 168.144C476.666 173.956 475.428 182.401 469.674 186.624C468.342 187.636 466.812 188.36 465.183 188.75C463.555 189.139 461.863 189.185 460.216 188.884C458.568 188.584 457.002 187.944 455.616 187.005C454.23 186.066 453.055 184.849 452.167 183.431C429.665 150.208 401.162 124.057 367.401 105.841C295.637 67.0306 203.863 67.0306 132.354 106.105C98.346 124.584 69.8351 151.006 47.3333 184.253C46.375 185.982 44.9582 187.414 43.2383 188.392C41.5185 189.369 39.5623 189.854 37.5846 189.793ZM193.867 508.452C192.199 508.467 190.548 508.117 189.03 507.428C187.512 506.739 186.163 505.726 185.077 504.461C163.326 481.495 151.572 466.712 134.824 434.766C117.596 402.326 108.566 362.717 108.566 320.234C108.566 241.806 172.108 177.915 250.13 177.915C328.151 177.915 391.661 241.806 391.661 320.234C391.661 327.626 386.155 333.429 379.156 333.429C372.156 333.429 366.666 327.61 366.666 320.234C366.666 256.374 314.407 204.329 250.146 204.329C185.884 204.329 133.601 256.326 133.601 320.234C133.601 358.246 141.592 393.361 156.854 421.875C172.835 452.208 183.863 465.171 203.12 485.734C205.413 488.319 206.679 491.652 206.679 495.106C206.679 498.559 205.413 501.893 203.12 504.477C200.675 506.96 197.353 508.387 193.867 508.452ZM373.155 459.616C343.397 459.616 317.14 451.689 295.645 436.115C277.235 422.899 262.236 405.498 251.887 385.349C241.537 365.2 236.133 342.881 236.122 320.234C236.122 312.842 241.627 307.031 248.627 307.031C255.627 307.031 261.133 312.842 261.133 320.234C261.129 338.629 265.529 356.757 273.967 373.107C282.405 389.457 294.635 403.553 309.636 414.219C327.392 426.895 348.152 432.962 373.155 432.962C381.88 432.809 390.578 431.925 399.156 430.32C405.909 429.003 412.413 433.752 413.659 441.144C414.308 444.527 413.598 448.028 411.682 450.892C409.767 453.755 406.8 455.751 403.423 456.447C393.456 458.451 383.321 459.512 373.155 459.616ZM322.893 514C321.791 513.954 320.699 513.775 319.641 513.465C279.887 501.851 253.877 486.277 226.621 458.027C191.614 421.308 172.364 372.487 172.364 320.218C172.364 277.448 206.868 242.597 249.378 242.597C291.889 242.597 326.393 277.448 326.393 320.234C326.393 348.484 349.646 371.449 378.404 371.449C407.163 371.449 430.416 348.484 430.416 320.234C430.416 220.701 349.15 139.91 249.131 139.91C178.085 139.894 113.097 181.611 83.8429 246.293C74.0862 267.678 69.092 292.758 69.092 320.234C69.092 340.821 70.842 373.293 85.8725 415.536C88.3736 422.401 85.1214 430.057 78.6249 432.435C72.1205 435.077 64.8729 431.382 62.6435 424.78C50.3937 390.192 44.3927 355.876 44.3927 320.21C44.3927 288.528 50.138 259.751 61.389 234.67C94.6463 161.008 168.417 113.225 249.171 113.225C362.942 113.225 455.459 205.893 455.459 319.971C455.459 362.733 420.955 397.584 378.444 397.584C335.934 397.584 301.43 362.733 301.43 319.971C301.43 291.721 278.169 268.747 249.418 268.747C220.668 268.747 197.407 291.721 197.407 319.971C197.407 365.111 213.908 407.354 244.168 439.037C267.877 463.838 290.634 477.568 325.913 487.865C332.666 489.709 336.421 497.101 334.703 503.966C333.393 510.041 328.143 514 322.893 514Z" fill="white"/>
<path d="M232.835 423.494C168.921 423.494 117 430.172 117 438.485C117 446.797 168.921 453.475 232.835 453.475C296.749 453.475 348.67 446.797 348.67 438.485C348.67 430.172 296.749 423.494 232.835 423.494Z" fill="#0045A5" fill-opacity="0.1"/>
<path d="M225.341 184.737C227.915 183.591 230.701 183 233.518 183C236.335 183 239.121 183.591 241.694 184.737L324.414 221.669C327.988 223.31 331.016 225.94 333.141 229.249C335.266 232.557 336.4 236.406 336.407 240.339V296.075C336.407 360.261 292.389 420.087 233.518 435.077C174.646 420.223 130.629 360.261 130.629 296.075V240.339C130.636 236.406 131.769 232.557 133.894 229.249C136.019 225.94 139.048 223.31 142.621 221.669L225.341 184.737Z" fill="#B9CFF3" stroke="white" stroke-width="5"/>
<path d="M241.232 292.192C241.232 290.631 240.824 289.098 240.05 287.742C239.275 286.387 238.16 285.257 236.815 284.464C235.47 283.672 233.941 283.245 232.38 283.225C230.819 283.205 229.28 283.593 227.914 284.35C226.549 285.107 225.405 286.208 224.596 287.543C223.787 288.878 223.34 290.4 223.3 291.961C223.26 293.522 223.628 295.066 224.367 296.44C225.107 297.815 226.193 298.973 227.517 299.799L225.145 316.448H239.384L237.011 299.799C238.303 298.994 239.368 297.874 240.107 296.543C240.845 295.212 241.232 293.715 241.232 292.192Z" fill="#16409D"/>
<path d="M197.541 336.359C196.448 336.378 195.363 336.17 194.353 335.75C193.344 335.329 192.432 334.705 191.676 333.916C190.868 333.174 190.231 332.264 189.81 331.252C189.388 330.239 189.191 329.147 189.232 328.051V268.422C189.214 267.329 189.421 266.243 189.842 265.233C190.262 264.224 190.887 263.314 191.676 262.557C192.418 261.75 193.327 261.112 194.34 260.69C195.352 260.268 196.445 260.071 197.541 260.112H207.072V247.161C207 243.733 207.611 240.326 208.87 237.137C210.129 233.948 212.01 231.042 214.403 228.588C216.729 226.142 219.537 224.205 222.65 222.901C225.763 221.597 229.113 220.953 232.487 221.011C235.868 220.906 239.232 221.529 242.352 222.836C245.472 224.143 248.275 226.104 250.572 228.588C252.965 231.042 254.846 233.948 256.105 237.137C257.364 240.326 257.975 243.733 257.903 247.161V260.357H267.434C268.527 260.339 269.612 260.546 270.621 260.967C271.631 261.387 272.542 262.012 273.299 262.801C274.107 263.543 274.743 264.452 275.165 265.465C275.587 266.478 275.784 267.569 275.743 268.666V328.295C275.761 329.388 275.554 330.473 275.133 331.482C274.712 332.491 274.088 333.403 273.299 334.16C272.557 334.967 271.648 335.605 270.635 336.027C269.622 336.449 268.53 336.646 267.434 336.604H197.541V336.359ZM197.541 328.051H267.678V268.422H197.541V328.051ZM215.136 260.357H250.327V247.161C250.392 244.84 249.968 242.531 249.084 240.384C248.2 238.237 246.875 236.299 245.195 234.696C242.734 232.227 239.595 230.545 236.176 229.863C232.757 229.18 229.213 229.528 225.992 230.863C222.772 232.199 220.021 234.46 218.088 237.362C216.155 240.263 215.128 243.674 215.136 247.161V260.357Z" fill="#16409D"/>
<path d="M232.835 423.494C168.921 423.494 117 430.172 117 438.485C117 446.797 168.921 453.475 232.835 453.475C296.749 453.475 348.67 446.797 348.67 438.485C348.67 430.172 296.749 423.494 232.835 423.494Z" fill="#0045A5" fill-opacity="0.1"/>
<path d="M225.341 184.737C227.915 183.591 230.701 183 233.518 183C236.335 183 239.121 183.591 241.694 184.737L324.414 221.669C327.988 223.31 331.016 225.94 333.141 229.249C335.266 232.557 336.4 236.406 336.407 240.339V296.075C336.407 360.261 292.389 420.087 233.518 435.077C174.646 420.223 130.629 360.261 130.629 296.075V240.339C130.636 236.406 131.769 232.557 133.894 229.249C136.019 225.94 139.048 223.31 142.621 221.669L225.341 184.737Z" fill="#B9CFF3" stroke="white" stroke-width="5"/>
<path d="M241.232 292.192C241.232 290.631 240.824 289.098 240.05 287.742C239.275 286.387 238.16 285.257 236.815 284.464C235.47 283.672 233.941 283.245 232.38 283.225C230.819 283.205 229.28 283.593 227.914 284.35C226.549 285.107 225.405 286.208 224.596 287.543C223.787 288.878 223.34 290.4 223.3 291.961C223.26 293.522 223.628 295.066 224.367 296.44C225.107 297.815 226.193 298.973 227.517 299.799L225.145 316.448H239.384L237.011 299.799C238.303 298.994 239.368 297.874 240.107 296.543C240.845 295.212 241.232 293.715 241.232 292.192Z" fill="#16409D"/>
<path d="M197.541 336.359C196.448 336.378 195.363 336.17 194.353 335.75C193.344 335.329 192.432 334.705 191.676 333.916C190.868 333.174 190.231 332.264 189.81 331.252C189.388 330.239 189.191 329.147 189.232 328.051V268.422C189.214 267.329 189.421 266.243 189.842 265.233C190.262 264.224 190.887 263.314 191.676 262.557C192.418 261.75 193.327 261.112 194.34 260.69C195.352 260.268 196.445 260.071 197.541 260.112H207.072V247.161C207 243.733 207.611 240.326 208.87 237.137C210.129 233.948 212.01 231.042 214.403 228.588C216.729 226.142 219.537 224.205 222.65 222.901C225.763 221.597 229.113 220.953 232.487 221.011C235.868 220.906 239.232 221.529 242.352 222.836C245.472 224.143 248.275 226.104 250.572 228.588C252.965 231.042 254.846 233.948 256.105 237.137C257.364 240.326 257.975 243.733 257.903 247.161V260.357H267.434C268.527 260.339 269.612 260.546 270.621 260.967C271.631 261.387 272.542 262.012 273.299 262.801C274.107 263.543 274.743 264.452 275.165 265.465C275.587 266.478 275.784 267.569 275.743 268.666V328.295C275.761 329.388 275.554 330.473 275.133 331.482C274.712 332.491 274.088 333.403 273.299 334.16C272.557 334.967 271.648 335.605 270.635 336.027C269.622 336.449 268.53 336.646 267.434 336.604H197.541V336.359ZM197.541 328.051H267.678V268.422H197.541V328.051ZM215.136 260.357H250.327V247.161C250.392 244.84 249.968 242.531 249.084 240.384C248.2 238.237 246.875 236.299 245.195 234.696C242.734 232.227 239.595 230.545 236.176 229.863C232.757 229.18 229.213 229.528 225.992 230.863C222.772 232.199 220.021 234.46 218.088 237.362C216.155 240.263 215.128 243.674 215.136 247.161V260.357Z" fill="#16409D"/>
<path d="M325.336 160C352.674 160 374.836 137.838 374.836 110.5C374.836 83.1619 352.674 61 325.336 61C297.998 61 275.836 83.1619 275.836 110.5C275.836 137.838 297.998 160 325.336 160Z" fill="#D3E1F8" stroke="white" stroke-width="5"/>
<path d="M308.836 127C308.046 126.981 307.294 126.659 306.736 126.101C306.177 125.542 305.855 124.79 305.836 124V100C305.855 99.2104 306.177 98.4589 306.736 97.9004C307.294 97.3419 308.046 97.0193 308.836 97H321.336V90C321.355 89.2104 321.677 88.4589 322.236 87.9004C322.794 87.3419 323.546 87.0193 324.336 87H327.336C328.126 87.0193 328.877 87.3419 329.436 87.9004C329.994 88.4589 330.317 89.2104 330.336 90V97H342.836C343.626 97.0193 344.377 97.3419 344.936 97.9004C345.494 98.4589 345.817 99.2104 345.836 100V124C345.817 124.79 345.494 125.542 344.936 126.101C344.377 126.659 343.626 126.981 342.836 127H308.836ZM308.836 124H342.836V100H330.336V101.5C330.357 101.91 330.287 102.321 330.132 102.701C329.976 103.081 329.739 103.422 329.436 103.7C328.854 104.21 328.109 104.494 327.336 104.5H324.336C323.563 104.494 322.817 104.21 322.236 103.7C321.933 103.422 321.696 103.081 321.54 102.701C321.384 102.321 321.315 101.91 321.336 101.5V100H308.836V124ZM313.436 118.601H325.336V117.9C325.31 117.346 325.174 116.801 324.936 116.3C324.663 115.839 324.239 115.486 323.736 115.3C322.926 114.991 322.089 114.757 321.236 114.601C320.642 114.485 320.04 114.418 319.436 114.4C318.766 114.422 318.097 114.489 317.436 114.601C316.618 114.768 315.815 115.001 315.036 115.3C314.533 115.486 314.109 115.839 313.836 116.3C313.552 116.784 313.414 117.34 313.436 117.9V118.601ZM330.236 115.3H338.736V112.8H330.236V115.3ZM319.536 112.8C319.891 112.805 320.243 112.737 320.57 112.6C320.897 112.462 321.192 112.258 321.436 112C321.816 111.623 322.076 111.143 322.182 110.618C322.288 110.094 322.237 109.55 322.033 109.055C321.829 108.56 321.483 108.137 321.039 107.839C320.594 107.541 320.071 107.382 319.536 107.382C319.001 107.382 318.478 107.541 318.033 107.839C317.588 108.137 317.242 108.56 317.039 109.055C316.835 109.55 316.783 110.094 316.89 110.618C316.996 111.143 317.256 111.623 317.636 112C317.88 112.258 318.175 112.462 318.502 112.6C318.829 112.737 319.181 112.805 319.536 112.8ZM330.236 109.601H338.736V107.101H330.236V109.601ZM324.336 101.5H327.336V90H324.336V101.5Z" fill="#4074BC"/>
<path d="M181.113 378V351.75H193.038C195.888 351.75 198.4 352.3 200.575 353.4C202.75 354.475 204.45 355.987 205.675 357.937C206.9 359.887 207.513 362.2 207.513 364.875C207.513 367.525 206.9 369.837 205.675 371.812C204.45 373.762 202.75 375.287 200.575 376.387C198.4 377.462 195.888 378 193.038 378H181.113ZM187.188 373.012H192.738C194.488 373.012 196 372.687 197.275 372.037C198.575 371.362 199.575 370.412 200.275 369.187C201 367.962 201.363 366.525 201.363 364.875C201.363 363.2 201 361.762 200.275 360.562C199.575 359.337 198.575 358.4 197.275 357.75C196 357.075 194.488 356.737 192.738 356.737H187.188V373.012ZM220.719 378.45C218.619 378.45 216.606 378.175 214.681 377.625C212.756 377.05 211.206 376.312 210.031 375.412L212.094 370.837C213.219 371.637 214.544 372.3 216.069 372.825C217.619 373.325 219.181 373.575 220.756 373.575C221.956 373.575 222.919 373.462 223.644 373.237C224.394 372.987 224.944 372.65 225.294 372.225C225.644 371.8 225.819 371.312 225.819 370.762C225.819 370.062 225.544 369.512 224.994 369.112C224.444 368.687 223.719 368.35 222.819 368.1C221.919 367.825 220.919 367.575 219.819 367.35C218.744 367.1 217.656 366.8 216.556 366.45C215.481 366.1 214.494 365.65 213.594 365.1C212.694 364.55 211.956 363.825 211.381 362.925C210.831 362.025 210.556 360.875 210.556 359.475C210.556 357.975 210.956 356.612 211.756 355.387C212.581 354.137 213.806 353.15 215.431 352.425C217.081 351.675 219.144 351.3 221.619 351.3C223.269 351.3 224.894 351.5 226.494 351.9C228.094 352.275 229.506 352.85 230.731 353.625L228.856 358.237C227.631 357.537 226.406 357.025 225.181 356.7C223.956 356.35 222.756 356.175 221.581 356.175C220.406 356.175 219.444 356.312 218.694 356.587C217.944 356.862 217.406 357.225 217.081 357.675C216.756 358.1 216.594 358.6 216.594 359.175C216.594 359.85 216.869 360.4 217.419 360.825C217.969 361.225 218.694 361.55 219.594 361.8C220.494 362.05 221.481 362.3 222.556 362.55C223.656 362.8 224.744 363.087 225.819 363.412C226.919 363.737 227.919 364.175 228.819 364.725C229.719 365.275 230.444 366 230.994 366.9C231.569 367.8 231.856 368.937 231.856 370.312C231.856 371.787 231.444 373.137 230.619 374.362C229.794 375.587 228.556 376.575 226.906 377.325C225.281 378.075 223.219 378.45 220.719 378.45ZM232.558 378L244.258 351.75H250.258L261.995 378H255.62L246.02 354.825H248.42L238.783 378H232.558ZM238.408 372.375L240.02 367.762H253.52L255.17 372.375H238.408ZM264.718 378V351.75H276.081C278.431 351.75 280.456 352.137 282.156 352.912C283.856 353.662 285.168 354.75 286.093 356.175C287.018 357.6 287.481 359.3 287.481 361.275C287.481 363.225 287.018 364.912 286.093 366.337C285.168 367.737 283.856 368.812 282.156 369.562C280.456 370.312 278.431 370.687 276.081 370.687H268.093L270.793 368.025V378H264.718ZM281.406 378L274.843 368.475H281.331L287.968 378H281.406ZM270.793 368.7L268.093 365.85H275.743C277.618 365.85 279.018 365.45 279.943 364.65C280.868 363.825 281.331 362.7 281.331 361.275C281.331 359.825 280.868 358.7 279.943 357.9C279.018 357.1 277.618 356.7 275.743 356.7H268.093L270.793 353.812V368.7Z" fill="#4074BC"/>
</g>
<defs>
<clipPath id="clip0_503_3665">
<rect width="500" height="500" fill="white"/>
</clipPath>
</defs>
</svg>
